<svg width="15" height="15" viewBox="0 0 15 15" fill="none" xmlns="http://www.w3.org/2000/svg">
<path d="M8.05736 7.5L14.8846 0.672758C15.0385 0.518867 15.0385 0.26936 14.8846 0.115468C14.7306 -0.0384237 14.4812 -0.0384237 14.3272 0.115468L7.50002 6.94266L0.672794 0.115419C0.518902 -0.0384729 0.269396 -0.0384729 0.115505 0.115419C-0.0384359 0.26931 -0.0384359 0.518818 0.115505 0.672709L6.94268 7.5L0.115455 14.3272C-0.0384851 14.4812 -0.0384851 14.7306 0.115455 14.8846C0.192401 14.9615 0.293238 15 0.394125 15C0.495011 15 0.595848 14.9615 0.672794 14.8846L7.50002 8.05734L14.3272 14.8846C14.4042 14.9615 14.505 15 14.6059 15C14.7068 15 14.8076 14.9615 14.8846 14.8846C15.0385 14.7306 15.0385 14.4812 14.8846 14.3272L8.05736 7.5Z" fill="black"/>
</svg>
